# xmcd
#
# Track frame offsets: 
#        151
#        19819
#        31802
#        48124
#        70363
#        92145
#        109662
#        129862
#        143726
#        159486
#        184921
#        202792
#        223759
#        242182
#
# Disc length: 3515 seconds
#
# Revision: 1
# Processed by: cddbd v1.5.2PL0 Copyright (c) Steve Scherf et al.
# Submitted via: ExactAudioCopy v0.95b4
#
DISCID=bc0db90e
DTITLE=Houston Marchman - Blue Cadillac
DYEAR=2004
DGENRE=Country
TTITLE0=Not Tonight
TTITLE1=Road Block
TTITLE2=Goodbye To Amarillo
TTITLE3=Broken Glass
TTITLE4=Me and My Old Man
TTITLE5=Blue Cadillac
TTITLE6=Soul Shine
TTITLE7=Holdin My Own
TTITLE8=Faye
TTITLE9=Everyday
TTITLE10=Soul Full Of Blues
TTITLE11=Long Way From Here
TTITLE12=Divorcees
TTITLE13=It Don't Mean I Love You
EXTD=
EXTT0=
EXTT1=
EXTT2=
EXTT3=
EXTT4=
EXTT5=
EXTT6=
EXTT7=
EXTT8=
EXTT9=
EXTT10=
EXTT11=
EXTT12=
EXTT13=
PLAYORDER=
